<?xml version="1.0" encoding="UTF-8" standalone="no"?>
<!-- Created with Inkscape (http://www.inkscape.org/) -->

<svg
   xmlns:dc="http://purl.org/dc/elements/1.1/"
   xmlns:cc="http://creativecommons.org/ns#"
   xmlns:rdf="http://www.w3.org/1999/02/22-rdf-syntax-ns#"
   xmlns:svg="http://www.w3.org/2000/svg"
   xmlns="http://www.w3.org/2000/svg"
   xmlns:sodipodi="http://sodipodi.sourceforge.net/DTD/sodipodi-0.dtd"
   xmlns:inkscape="http://www.inkscape.org/namespaces/inkscape"
   version="1.1"
   id="svg4595"
   width="96"
   height="126.66667"
   viewBox="0 0 96 126.66667"
   sodipodi:docname="station_x.svg"
   inkscape:version="0.92.1 r">
  <metadata
     id="metadata4601">
    <rdf:RDF>
      <cc:Work
         rdf:about="">
        <dc:format>image/svg+xml</dc:format>
        <dc:type
           rdf:resource="http://purl.org/dc/dcmitype/StillImage" />
        <dc:title></dc:title>
      </cc:Work>
    </rdf:RDF>
  </metadata>
  <defs
     id="defs4599" />
  <sodipodi:namedview
     pagecolor="#000000"
     bordercolor="#666666"
     borderopacity="1"
     objecttolerance="10"
     gridtolerance="10"
     guidetolerance="10"
     inkscape:pageopacity="0"
     inkscape:pageshadow="2"
     inkscape:window-width="1366"
     inkscape:window-height="742"
     id="namedview4597"
     showgrid="false"
     inkscape:pagecheckerboard="true"
     inkscape:zoom="4.3342104"
     inkscape:cx="81.113609"
     inkscape:cy="58.849052"
     inkscape:window-x="0"
     inkscape:window-y="0"
     inkscape:window-maximized="0"
     inkscape:current-layer="svg4595">
    <inkscape:grid
       type="xygrid"
       id="grid4605" />
  </sodipodi:namedview>
  <path
     style="fill:#fefefe;fill-opacity:1;fill-rule:evenodd;stroke:#000000;stroke-width:0;stroke-linecap:butt;stroke-linejoin:miter;stroke-miterlimit:4;stroke-dasharray:none;stroke-opacity:1"
     d="M 0.0057972,59.295691 0,80.666672 c 0.10397956,0.970238 0.56228091,1.68739 1.4275229,2.113869 1.3051637,0.553527 2.6103275,0.421549 3.9154912,0 0.697066,-0.405306 1.1944225,-0.924142 1.3459501,-1.835387 V 59.491525 C 6.6290662,58.642656 6.1753612,57.962845 5.5757863,57.329847 4.4873412,56.766378 3.0861903,56.346849 1.4584128,57.185645 0.8550104,57.59486 0.38549819,58.308913 0.0057972,59.295691 Z"
     id="path4607"
     inkscape:connector-curvature="0"
     sodipodi:nodetypes="ccccccccc" />
  <path
     style="fill:#fefefe;fill-opacity:1;fill-rule:evenodd;stroke:#000000;stroke-width:0;stroke-linecap:butt;stroke-linejoin:miter;stroke-miterlimit:4;stroke-dasharray:none;stroke-opacity:1"
     d="m 10.324833,40.780208 v 53.354586 c 0.418388,1.594699 1.412411,2.266177 2.105343,2.826351 2.614111,1.74443 6.123863,1.769591 8.277171,0.288403 2.155737,-1.329079 2.619411,-2.748439 2.941713,-4.441408 V 41.760779 C 23.373522,40.35423 22.536177,39.078414 21.341835,38.126899 19.145157,36.683992 15.795186,35.95937 12.8051,37.838496 c -1.270207,0.634109 -2.06509,2.108832 -2.480267,2.941712 z"
     id="path4609"
     inkscape:connector-curvature="0"
     sodipodi:nodetypes="ccccccccc" />
  <path
     style="fill:#fefefe;fill-opacity:1;fill-rule:evenodd;stroke:#000000;stroke-width:0;stroke-linecap:butt;stroke-linejoin:miter;stroke-miterlimit:4;stroke-dasharray:none;stroke-opacity:1"
     d="m 31.378265,106.47845 c 0.454545,1.52474 1.166225,2.85662 2.841497,3.46581 2.200739,0.93444 3.927149,0.99017 5.975803,0.40376 2.623345,-1.06683 3.224212,-2.69532 3.608994,-3.91139 V 4.4414087 C 43.080553,3.0432113 42.061768,2.0134879 40.722527,1.3843351 c -2.170195,-0.67018805 -4.270777,-0.713863 -6.287189,0 -1.931565,0.6936454 -2.6089,1.8576269 -3.345476,2.9993929 z"
     id="path4611"
     inkscape:connector-curvature="0"
     sodipodi:nodetypes="ccccccccc" />
  <path
     style="fill:#fefefe;fill-opacity:1;fill-rule:evenodd;stroke:#000000;stroke-width:0;stroke-linecap:butt;stroke-linejoin:miter;stroke-miterlimit:4;stroke-dasharray:none;stroke-opacity:1"
     d="M 53.758351,21.226473 V 121.36005 c 0.440122,2.57966 2.062472,3.51898 3.864602,3.97996 3.625415,0.60991 4.752007,-9.9e-4 5.825744,-0.2884 1.980875,-0.63586 3.362173,-2.15552 3.691561,-4.153 V 21.457196 c -0.263853,-1.152692 -0.57519,-2.807825 -3.114754,-3.979964 -1.620121,-0.829562 -3.758737,-1.301204 -6.690954,-0.403765 -1.261934,0.539246 -2.943243,1.050467 -3.576199,4.153006 z"
     id="path4613"
     inkscape:connector-curvature="0"
     sodipodi:nodetypes="ccccccccc" />
  <path
     style="fill:#fefefe;fill-opacity:1;fill-rule:evenodd;stroke:#000000;stroke-width:0;stroke-linecap:butt;stroke-linejoin:miter;stroke-miterlimit:4;stroke-dasharray:none;stroke-opacity:1"
     d="m 74.523379,42.683669 v 54.38174 c 0.841266,2.551256 2.556178,2.797221 3.287796,3.010491 1.223186,0.16592 2.487908,0.1521 3.864602,-0.173042 1.706311,-0.634667 2.454676,-0.686167 3.230116,-2.768671 V 43.837282 c -0.113211,-1.865803 -1.35135,-3.416651 -3.168936,-3.983463 -1.397394,-0.633404 -2.971056,-0.68773 -4.67563,0.06118 -1.172642,0.514951 -2.290372,1.174944 -2.537948,2.76867 z"
     id="path4615"
     inkscape:connector-curvature="0"
     sodipodi:nodetypes="ccccccccc" />
  <path
     style="fill:#fefefe;fill-opacity:1;fill-rule:evenodd;stroke:#000000;stroke-width:0;stroke-linecap:butt;stroke-linejoin:miter;stroke-miterlimit:4;stroke-dasharray:none;stroke-opacity:1"
     d="m 89.520344,58.603524 v 21.918641 c 0.225988,1.095041 0.821256,1.74334 1.940148,2.035717 0.677863,0.160785 1.556832,-0.02964 2.29443,-0.326291 0.521304,-0.515928 0.690132,-0.355802 1.07204,-1.478704 V 58.834246 C 94.583577,58.182344 94.24829,57.907848 93.788251,57.4726 c -0.771264,-0.273022 -1.669227,-0.50829 -2.549148,-0.346684 -1.013886,0.110828 -1.574613,0.714475 -1.718759,1.477608 z"
     id="path4617"
     inkscape:connector-curvature="0"
     sodipodi:nodetypes="ccccccccc" />
</svg>
